<svg width="175" height="41" xmlns="http://www.w3.org/2000/svg" xmlns:xlink="http://www.w3.org/1999/xlink"><defs><path id="a" d="M.074.08h36.839v34.395H.074z"/><path id="c" d="M.06.087h22.708v6.815H.06z"/></defs><g fill="none" fill-rule="evenodd"><path d="M19.948 34.237c-2.806 0-5.634-.9-8.04-2.763a13.535 13.535 0 0 1-3.162-3.476.985.985 0 0 1 .279-1.342.932.932 0 0 1 1.308.287 11.618 11.618 0 0 0 2.715 2.983 11.236 11.236 0 0 0 6.902 2.372c3.479 0 6.918-1.611 9.171-4.67 3.301-4.48 3.047-10.76-.603-14.932a.987.987 0 0 1 .073-1.37.93.93 0 0 1 1.336.075c4.253 4.862 4.55 12.178.704 17.397-2.624 3.562-6.631 5.439-10.683 5.439" fill="#05B3C8"/><path d="M29.217 13.018a.94.94 0 0 1-.803-.454 2.745 2.745 0 0 1-.382-1.716c.077-.713.42-1.351.965-1.799a2.57 2.57 0 0 1 3.29.018c.405.34.465.951.133 1.366a.93.93 0 0 1-1.331.135.708.708 0 0 0-.91-.004.742.742 0 0 0-.266.497.745.745 0 0 0 .105.472.984.984 0 0 1-.3 1.337.924.924 0 0 1-.5.148" fill="#05B3C8"/><path d="M1.228 24.829a.953.953 0 0 1-.932-.805c-.718-4.268-.124-8.57 1.72-12.44a.936.936 0 0 1 1.265-.447.98.98 0 0 1 .435 1.297c-1.668 3.502-2.205 7.396-1.555 11.26a.968.968 0 0 1-.771 1.12.932.932 0 0 1-.162.015" fill="#8FBE00"/><path d="M5.83 14.456a.923.923 0 0 1-.306-.052.976.976 0 0 1-.59-1.23.765.765 0 0 0-.29-.865.706.706 0 0 0-.978.217.933.933 0 0 1-1.306.301.984.984 0 0 1-.294-1.338 2.566 2.566 0 0 1 3.589-.82c1.006.652 1.456 1.968 1.07 3.13a.949.949 0 0 1-.895.657" fill="#8FBE00"/><path d="M6.06 25.39a2.544 2.544 0 0 1-1.563-.54 2.81 2.81 0 0 1-.912-1.247l-.029-.08-.014-.086c-.597-3.56-.1-7.148 1.438-10.376a.936.936 0 0 1 1.265-.447c.47.235.665.816.436 1.298a15.362 15.362 0 0 0-1.291 9.09.912.912 0 0 0 .248.3.704.704 0 0 0 .997-.143.73.73 0 0 0 .142-.4 13.927 13.927 0 0 1 1.167-8.22.936.936 0 0 1 1.266-.447c.47.235.664.816.435 1.297a11.958 11.958 0 0 0-.988 7.13l.011.07.002.071a2.724 2.724 0 0 1-.526 1.668 2.576 2.576 0 0 1-2.083 1.061" fill="#8FBE00"/><g transform="translate(3.01 6.526)"><mask id="b" fill="#fff"><use xlink:href="#a"/></mask><path d="M16.911 34.475c-4.31 0-8.486-1.426-11.987-4.136a20.207 20.207 0 0 1-4.696-5.152.985.985 0 0 1 .276-1.342.932.932 0 0 1 1.31.283 18.29 18.29 0 0 0 4.25 4.663c3.852 2.98 8.605 4.246 13.384 3.563 4.78-.683 9.013-3.233 11.922-7.18A18.861 18.861 0 0 0 35 13.168c-.192-4.246-1.808-8.32-4.553-11.472a.987.987 0 0 1 .076-1.37.93.93 0 0 1 1.336.079c3.033 3.483 4.82 7.984 5.032 12.674a20.84 20.84 0 0 1-4.012 13.264c-3.213 4.36-7.89 7.178-13.17 7.932-.936.134-1.87.2-2.799.2" fill="#05B3C8" mask="url(#b)"/></g><path d="M4.034 32.153a.944.944 0 0 1-.849-.54 2.742 2.742 0 0 1-.143-2.033 2.61 2.61 0 0 1 1.304-1.555 2.592 2.592 0 0 1 3.166.677.987.987 0 0 1-.12 1.366.93.93 0 0 1-1.333-.122.722.722 0 0 0-.872-.184.698.698 0 0 0-.345.418.77.77 0 0 0 .038.571.981.981 0 0 1-.426 1.3.924.924 0 0 1-.42.102" fill="#05B3C8"/><path d="M19.944 37.613A16.31 16.31 0 0 1 9.92 34.17a16.872 16.872 0 0 1-3.929-4.314.985.985 0 0 1 .277-1.342.933.933 0 0 1 1.31.284 14.956 14.956 0 0 0 3.483 3.824 14.462 14.462 0 0 0 8.884 3.052c4.478 0 8.904-2.073 11.805-6.01 4.243-5.758 3.922-13.835-.763-19.205a.987.987 0 0 1 .075-1.37.93.93 0 0 1 1.336.077c5.286 6.06 5.648 15.172.862 21.668-3.272 4.44-8.266 6.78-13.317 6.78" fill="#05B3C8"/><g transform="translate(6.366 .002)"><mask id="d" fill="#fff"><use xlink:href="#c"/></mask><path d="M1.006 6.902a.934.934 0 0 1-.709-.327.987.987 0 0 1 .082-1.369A19.65 19.65 0 0 1 10.848.284c3.91-.556 7.846.068 11.383 1.804a.98.98 0 0 1 .444 1.294.936.936 0 0 1-1.262.456 17.647 17.647 0 0 0-10.305-1.632 17.785 17.785 0 0 0-9.475 4.453.93.93 0 0 1-.627.243" fill="#F3A366" mask="url(#d)"/></g><path d="M27.298 7.074a2.52 2.52 0 0 1-.848-.148.976.976 0 0 1-.583-1.235.94.94 0 0 1 1.205-.597.701.701 0 0 0 .818-.301.753.753 0 0 0 .098-.554.705.705 0 0 0-.3-.453.984.984 0 0 1-.284-1.34.932.932 0 0 1 1.307-.291c.584.384.984.982 1.129 1.684a2.72 2.72 0 0 1-.357 2.002 2.582 2.582 0 0 1-2.185 1.233" fill="#F3A366"/><path d="M9.551 9.439a.934.934 0 0 1-.708-.327.987.987 0 0 1 .08-1.369 16.409 16.409 0 0 1 8.725-4.117A16.23 16.23 0 0 1 27.14 5.12a.98.98 0 0 1 .445 1.294.936.936 0 0 1-1.262.456 14.382 14.382 0 0 0-8.412-1.324 14.544 14.544 0 0 0-7.733 3.648.93.93 0 0 1-.627.244" fill="#F3A366"/><path d="M10.842 12.232a2.582 2.582 0 0 1-2.038-1.004 2.71 2.71 0 0 1-.56-1.97 2.706 2.706 0 0 1 .575-1.403.93.93 0 0 1 1.331-.136c.405.339.465.95.134 1.364a.746.746 0 0 0-.158.387.749.749 0 0 0 .154.545.714.714 0 0 0 .947.165.933.933 0 0 1 1.304.306.984.984 0 0 1-.298 1.337c-.416.268-.901.41-1.39.41" fill="#F3A366"/><path d="M11.73 11.974a.934.934 0 0 1-.708-.327.987.987 0 0 1 .08-1.369 13.168 13.168 0 0 1 6.967-3.302 13.022 13.022 0 0 1 7.588 1.164.98.98 0 0 1 .452 1.291.936.936 0 0 1-1.26.463 11.176 11.176 0 0 0-6.512-.998 11.3 11.3 0 0 0-5.98 2.833.93.93 0 0 1-.627.245" fill="#F3A366"/><g fill="#FFF"><path d="M50.019 30.558h4.276V7.057h-4.276zM88.156 14.29h4.077L85.14 30.559h-3.613L74.5 14.291h4.375l4.574 11.5 4.707-11.5M97.698 17.857c-.674.712-1.089 1.734-1.243 3.067h7.49c-.044-1.355-.375-2.383-.994-3.083-.618-.7-1.48-1.05-2.585-1.05s-1.994.355-2.668 1.066zm9.794 5.3H96.455c.133 1.512.585 2.634 1.359 3.367.773.734 1.878 1.1 3.314 1.1 1.79 0 3.425-.577 4.906-1.733l1.193 2.867c-.751.622-1.696 1.122-2.834 1.5a10.837 10.837 0 0 1-3.43.567c-2.652 0-4.746-.756-6.281-2.267-1.536-1.511-2.304-3.578-2.304-6.2 0-1.667.331-3.145.994-4.434.663-1.289 1.597-2.289 2.801-3 1.204-.711 2.569-1.067 4.094-1.067 2.231 0 3.994.723 5.286 2.167 1.293 1.445 1.94 3.433 1.94 5.967v1.167zM157.607 26.258c.707-.889 1.06-2.2 1.06-3.934 0-1.71-.353-3.017-1.06-3.917-.708-.9-1.724-1.35-3.05-1.35-1.325 0-2.348.45-3.065 1.35-.719.9-1.078 2.206-1.078 3.917 0 1.734.353 3.045 1.061 3.934.707.889 1.723 1.333 3.05 1.333 1.347 0 2.374-.444 3.082-1.333zM150.2 29.79c-1.249-.688-2.216-1.677-2.9-2.967-.686-1.288-1.028-2.788-1.028-4.5 0-1.71.342-3.205 1.028-4.483a7.154 7.154 0 0 1 2.9-2.95c1.248-.689 2.701-1.034 4.359-1.034 1.657 0 3.11.345 4.358 1.034a7.051 7.051 0 0 1 2.884 2.95c.673 1.278 1.01 2.772 1.01 4.483 0 1.712-.337 3.212-1.01 4.5-.674 1.29-1.635 2.279-2.884 2.967-1.249.69-2.701 1.034-4.358 1.034-1.658 0-3.11-.345-4.36-1.034zM71.97 15.524c.95 1.111 1.425 2.79 1.425 5.034v10h-4.143v-9.767c0-1.267-.238-2.189-.713-2.767-.475-.578-1.22-.867-2.237-.867-1.193 0-2.15.378-2.867 1.134-.719.755-1.077 1.766-1.077 3.033v9.234h-4.144v-16.3h4.044v2.433a5.618 5.618 0 0 1 2.221-2.1c.928-.49 1.977-.734 3.149-.734 1.944 0 3.392.556 4.342 1.667M121.79 22.833c-.751-.767-1.933-1.328-3.546-1.684l-2.751-.633c-.707-.155-1.221-.378-1.541-.667a1.415 1.415 0 0 1-.48-1.1c0-.6.253-1.067.762-1.4.508-.333 1.214-.5 2.12-.5 1.364 0 2.728.403 4.092 1.21l1.104-2.89a9.705 9.705 0 0 0-1.83-.82 10.525 10.525 0 0 0-3.332-.533c-1.326 0-2.492.211-3.497.633-1.006.422-1.79 1.017-2.353 1.783-.564.767-.845 1.65-.845 2.65 0 1.2.364 2.179 1.093 2.934.73.756 1.845 1.3 3.348 1.633l2.652.6c.883.223 1.496.467 1.84.734.342.267.513.645.513 1.133 0 .578-.248 1.023-.746 1.334-.497.311-1.22.466-2.171.466-2.098 0-3.97-.56-5.619-1.678l-1.04 2.998c.751.513 1.628.918 2.632 1.214 1.204.355 2.524.533 3.96.533 2.078 0 3.724-.444 4.94-1.333 1.215-.889 1.823-2.089 1.823-3.6 0-1.245-.376-2.25-1.127-3.017M132.397 27.684c-2.011 0-3.017-1.089-3.017-3.267v-6.621h4.413v-3.134h-4.413V9.383h-4.143v15.1c0 2.09.541 3.663 1.624 4.718 1.083 1.056 2.762 1.583 5.038 1.583.521 0 1.27-.08 1.909-.145v-3.042c-.49.057-.96.087-1.411.087M143.689 27.684c-2.012 0-3.017-1.089-3.017-3.267v-6.621h4.413v-3.134h-4.413V9.383h-4.143v15.1c0 2.09.542 3.663 1.624 4.718 1.083 1.056 2.762 1.583 5.039 1.583.52 0 1.268-.08 1.908-.145v-3.042c-.49.057-.96.087-1.411.087M174.986 14.077l-1.005.08c-2.63.178-4.364 1.245-5.203 3.2V14.49h-3.945v16.301h4.144v-8.8c0-2.511 1.37-3.911 4.11-4.2l1.899-.183v-3.53"/></g></g></svg>