<?xml version="1.0" encoding="UTF-8" standalone="no"?>
<!-- Created with Inkscape (http://www.inkscape.org/) -->

<svg
   xmlns:dc="http://purl.org/dc/elements/1.1/"
   xmlns:cc="http://creativecommons.org/ns#"
   xmlns:rdf="http://www.w3.org/1999/02/22-rdf-syntax-ns#"
   xmlns:svg="http://www.w3.org/2000/svg"
   xmlns="http://www.w3.org/2000/svg"
   xmlns:sodipodi="http://sodipodi.sourceforge.net/DTD/sodipodi-0.dtd"
   xmlns:inkscape="http://www.inkscape.org/namespaces/inkscape"
   id="svg3023"
   version="1.1"
   inkscape:version="0.48.5 r10040"
   width="300"
   height="64.769493"
   xml:space="preserve"
   sodipodi:docname="logo.svg"><metadata
     id="metadata3029"><rdf:RDF><cc:Work
         rdf:about=""><dc:format>image/svg+xml</dc:format><dc:type
           rdf:resource="http://purl.org/dc/dcmitype/StillImage" /><dc:title></dc:title></cc:Work></rdf:RDF></metadata><defs
     id="defs3027"><clipPath
       clipPathUnits="userSpaceOnUse"
       id="clipPath3037"><path
         d="m 0,595.28 841.89,0 L 841.89,0 0,0 0,595.28 z"
         id="path3039"
         inkscape:connector-curvature="0" /></clipPath><clipPath
       clipPathUnits="userSpaceOnUse"
       id="clipPath3263"><path
         d="m 0,595.28 841.89,0 L 841.89,0 0,0 0,595.28 z"
         id="path3265"
         inkscape:connector-curvature="0" /></clipPath></defs><sodipodi:namedview
     pagecolor="#ffffff"
     bordercolor="#666666"
     borderopacity="1"
     objecttolerance="10"
     gridtolerance="10"
     guidetolerance="10"
     inkscape:pageopacity="0"
     inkscape:pageshadow="2"
     inkscape:window-width="1600"
     inkscape:window-height="847"
     id="namedview3025"
     showgrid="false"
     inkscape:zoom="0.51805673"
     inkscape:cx="525.22764"
     inkscape:cy="-270.27342"
     inkscape:window-x="0"
     inkscape:window-y="29"
     inkscape:window-maximized="1"
     inkscape:current-layer="g3031"
     fit-margin-top="0"
     fit-margin-left="0"
     fit-margin-right="0"
     fit-margin-bottom="0" /><g
     id="g3031"
     inkscape:groupmode="layer"
     inkscape:label="logo"
     transform="matrix(1.25,0,0,-1.25,2.73032e-5,65.795)"><g
       id="g3044"
       transform="matrix(1.0751172,0,0,1.0751172,-158.68216,-201.12101)"><path
         d="m 171.9487,228.2871 -0.574,-3.63 c 2.144,0.169 4.322,0.255 6.478,0.255 2.185,0 4.366,-0.089 6.485,-0.262 l 0.577,3.647 c -4.166,0.49 -8.644,0.487 -12.966,-0.01"
         style="fill:#64abde;fill-opacity:1;fill-rule:nonzero;stroke:none"
         id="path3145"
         inkscape:connector-curvature="0" /><path
         d="m 167.3472,199.2344 -0.578,-3.652 c 4.168,-0.49 8.644,-0.487 12.966,0.01 l 0.575,3.635 c -4.305,-0.338 -8.772,-0.336 -12.963,0.007"
         style="fill:#64abde;fill-opacity:1;fill-rule:nonzero;stroke:none"
         id="path3149"
         inkscape:connector-curvature="0" /><path
         d="m 181.772,236.0273 -0.594,-3.751 c 9.037,-0.384 17.269,-3.257 22.722,-7.92 l 0.185,1.171 c -5.002,6.192 -13.117,10.01 -22.313,10.5"
         style="fill:#0082c7;fill-opacity:1;fill-rule:nonzero;stroke:none"
         id="path3153"
         inkscape:connector-curvature="0" /><path
         d="m 188.4253,224.1992 c 5.785,-0.811 10.876,-2.293 14.769,-4.302 l 0.225,1.425 c -3.641,2.956 -8.628,5.14 -14.447,6.326 l -0.547,-3.449 z"
         style="fill:#0082c7;fill-opacity:1;fill-rule:nonzero;stroke:none"
         id="path3157"
         inkscape:connector-curvature="0" /><path
         d="m 183.9985,196.2471 c 6.196,1.195 11.876,3.388 16.456,6.353 l 0.212,1.339 c -4.529,-1.994 -10.087,-3.464 -16.126,-4.266 l -0.542,-3.426 z"
         style="fill:#0082c7;fill-opacity:1;fill-rule:nonzero;stroke:none"
         id="path3161"
         inkscape:connector-curvature="0" /><path
         d="m 177.6567,210.0459 c 9.211,0.052 17.978,0.438 24.146,1.063 l 0.259,1.639 c -5.984,0.617 -14.627,0.997 -23.811,1.045 l -0.594,-3.747 z"
         style="fill:#0082c7;fill-opacity:1;fill-rule:nonzero;stroke:none"
         id="path3165"
         inkscape:connector-curvature="0" /><path
         d="m 174.1392,187.8369 c 9.355,0.512 18.68,4.347 25.649,10.558 l 0.167,1.056 c -6.928,-4.646 -16.068,-7.503 -25.223,-7.872 l -0.593,-3.742 z"
         style="fill:#0082c7;fill-opacity:1;fill-rule:nonzero;stroke:none"
         id="path3169"
         inkscape:connector-curvature="0" /><path
         d="m 190.0698,203.917 c 4.164,0.714 7.881,1.692 11.055,2.911 l 0.244,1.548 c -3.108,-0.576 -6.74,-1.038 -10.811,-1.375 l -0.488,-3.084 z"
         style="fill:#0082c7;fill-opacity:1;fill-rule:nonzero;stroke:none"
         id="path3173"
         inkscape:connector-curvature="0" /><path
         d="m 165.7603,220.5508 -0.538,-3.399 c 3.698,0.215 7.55,0.324 11.453,0.324 9.986,0 19.37,-0.73 25.817,-2.005 l 0.253,1.596 c -6.104,2.65 -15.339,4.169 -25.387,4.169 -3.938,0 -7.839,-0.231 -11.598,-0.685"
         style="fill:#0082c7;fill-opacity:1;fill-rule:nonzero;stroke:none"
         id="path3177"
         inkscape:connector-curvature="0" /><path
         d="m 177.5415,236.0225 c -9.354,-0.511 -18.679,-4.347 -25.649,-10.559 l -0.167,-1.054 c 6.928,4.646 16.069,7.503 25.223,7.871 l 0.593,3.742 z"
         style="fill:#77c14f;fill-opacity:1;fill-rule:nonzero;stroke:none"
         id="path3181"
         inkscape:connector-curvature="0" /><path
         d="m 167.6851,227.6309 c -6.197,-1.196 -11.877,-3.391 -16.457,-6.359 l -0.212,-1.336 c 4.53,1.998 10.09,3.472 16.128,4.275 l 0.541,3.42 z"
         style="fill:#77c14f;fill-opacity:1;fill-rule:nonzero;stroke:none"
         id="path3185"
         inkscape:connector-curvature="0" /><path
         d="m 161.6108,219.9473 c -4.164,-0.715 -7.88,-1.693 -11.054,-2.913 l -0.245,-1.547 c 3.11,0.576 6.743,1.039 10.811,1.376 l 0.488,3.084 z"
         style="fill:#77c14f;fill-opacity:1;fill-rule:nonzero;stroke:none"
         id="path3189"
         inkscape:connector-curvature="0" /><path
         d="m 174.021,213.793 c -9.213,-0.051 -17.979,-0.434 -24.145,-1.054 l -0.259,-1.639 c 5.984,-0.622 14.626,-1.005 23.81,-1.054 l 0.594,3.747 z"
         style="fill:#77c14f;fill-opacity:1;fill-rule:nonzero;stroke:none"
         id="path3193"
         inkscape:connector-curvature="0" /><path
         d="m 175.0054,206.3887 c -9.986,0 -19.369,0.729 -25.817,2.004 l -0.253,-1.597 c 6.105,-2.648 15.34,-4.166 25.388,-4.166 l 0.001,-0.275 0,0.275 c 3.937,0 7.838,0.23 11.597,0.684 l 0.539,3.399 c -3.699,-0.215 -7.552,-0.324 -11.455,-0.324"
         style="fill:#77c14f;fill-opacity:1;fill-rule:nonzero;stroke:none"
         id="path3197"
         inkscape:connector-curvature="0" /><path
         d="m 163.2563,199.6699 c -5.784,0.81 -10.875,2.292 -14.769,4.298 l -0.225,-1.425 c 3.641,-2.954 8.629,-5.137 14.448,-6.322 l 0.546,3.449 z"
         style="fill:#77c14f;fill-opacity:1;fill-rule:nonzero;stroke:none"
         id="path3201"
         inkscape:connector-curvature="0" /><path
         d="m 147.5952,198.332 c 5.004,-6.192 13.117,-10.01 22.314,-10.5 l 0.594,3.751 c -9.037,0.385 -17.27,3.257 -22.722,7.92 l -0.186,-1.171 z"
         style="fill:#77c14f;fill-opacity:1;fill-rule:nonzero;stroke:none"
         id="path3205"
         inkscape:connector-curvature="0" /><path
         d="m 247.3467,225.6523 -9.729,-21.873 -2.051,13.751 3.779,8.122 -6.031,0 -9.65,-21.752 -3.015,21.752 -5.87,0 4.543,-29.432 6.674,0 5.629,12.103 1.85,-12.103 6.352,0 13.47,29.432 -5.951,0 z"
         style="fill:#ffffff;fill-opacity:1;fill-rule:nonzero;stroke:none"
         id="path3209"
         inkscape:connector-curvature="0" /><path
         d="m 263.3457,213.0674 -1.527,-10.293 c -1.287,-1.246 -2.574,-2.011 -4.906,-2.011 -2.493,0 -2.774,2.332 -2.171,6.354 0.844,5.387 2.533,5.95 4.342,6.312 1.166,0.282 3.016,0.08 4.262,-0.362 m -3.98,4.905 c -3.78,-0.201 -8.404,-1.005 -10.092,-9.81 -1.689,-8.806 1.447,-12.183 5.589,-12.183 2.573,0 5.427,1.166 6.473,2.493 l 0.844,-2.212 4.343,0 2.814,19.219 c -2.051,1.971 -6.916,2.654 -9.971,2.493"
         style="fill:#ffffff;fill-opacity:1;fill-rule:nonzero;stroke:none"
         id="path3213"
         inkscape:connector-curvature="0" /><path
         d="m 279.9492,227.7031 -5.629,0 -3.779,-23.884 c -0.885,-5.468 1.367,-7.598 5.186,-7.598 l 3.618,0 0.524,3.498 c -0.161,0 -2.332,0.803 -2.332,0.803 -1.166,0.443 -1.77,0.845 -1.247,4.182 l 3.659,22.999 z"
         style="fill:#ffffff;fill-opacity:1;fill-rule:nonzero;stroke:none"
         id="path3217"
         inkscape:connector-curvature="0" /><path
         d="m 291.8896,227.7031 -5.629,0 -3.779,-23.884 c -0.885,-5.468 1.367,-7.598 5.186,-7.598 l 3.618,0 0.524,3.498 c -0.161,0 -2.332,0.803 -2.332,0.803 -1.166,0.443 -1.77,0.845 -1.247,4.182 l 3.659,22.999 z"
         style="fill:#ffffff;fill-opacity:1;fill-rule:nonzero;stroke:none"
         id="path3221"
         inkscape:connector-curvature="0" /><path
         d="m 301.0547,204.7441 1.327,8.564 4.784,0 0.684,4.302 -4.784,0 0.965,5.951 -4.705,0 -1.889,-5.951 -3.619,-1.166 -0.483,-3.136 3.418,0 -1.488,-9.448 c -0.844,-5.469 1.408,-7.679 4.946,-7.679 l 3.86,0 0.563,3.538 c -0.201,0 -2.373,0.763 -2.373,0.763 -1.166,0.443 -1.728,0.885 -1.206,4.262"
         style="fill:#ffffff;fill-opacity:1;fill-rule:nonzero;stroke:none"
         id="path3225"
         inkscape:connector-curvature="0" /><path
         d="m 311.1445,219.7822 4.223,0 c 0.562,0 0.965,0.321 1.045,0.925 l 0.562,3.578 c 0.081,0.562 -0.16,1.005 -0.764,1.005 l -4.221,0 c -0.644,0 -1.045,-0.402 -1.126,-1.005 l -0.523,-3.578 c -0.08,-0.564 0.241,-0.925 0.804,-0.925"
         style="fill:#ffffff;fill-opacity:1;fill-rule:nonzero;stroke:none"
         id="path3229"
         inkscape:connector-curvature="0" /><path
         d="m 310.0596,217.5703 -3.378,-21.35 5.629,0 3.378,21.35 -5.629,0 z"
         style="fill:#ffffff;fill-opacity:1;fill-rule:nonzero;stroke:none"
         id="path3233"
         inkscape:connector-curvature="0" /><path
         d="m 344.3955,217.8926 c -3.457,0 -6.07,-1.528 -8.202,-2.936 -0.603,1.729 -2.372,2.936 -4.986,2.936 -3.296,0 -4.945,-1.247 -7.076,-2.614 l -0.763,2.292 -4.504,0 -3.377,-21.35 5.629,0 2.412,15.318 c 1.849,1.248 3.055,1.81 5.307,1.81 1.368,0 2.252,-0.885 1.93,-2.894 l -2.251,-14.234 5.629,0 2.251,14.112 c 0,0.202 0.161,1.166 0.201,1.328 1.689,1.287 3.217,1.688 5.469,1.688 1.366,0 2.211,-0.885 1.89,-2.894 l -2.252,-14.234 5.629,0 2.252,14.152 c 0.683,4.303 -0.604,7.52 -5.188,7.52"
         style="fill:#ffffff;fill-opacity:1;fill-rule:nonzero;stroke:none"
         id="path3237"
         inkscape:connector-curvature="0" /><path
         d="m 362.043,213.4297 c 2.252,0.04 3.338,-0.402 2.976,-2.373 -0.684,-3.94 -7.68,-2.773 -7.68,-2.773 0.522,2.653 0.885,5.105 4.704,5.146 m 8.766,-1.608 c 0.321,4.905 -3.78,6.191 -8.364,6.151 -7.84,-0.04 -9.609,-3.136 -10.855,-9.689 -1.448,-7.801 0.2,-12.103 5.307,-12.344 4.462,-0.281 7.92,0.201 11.137,1.166 l 0.684,4.02 c -2.493,-0.402 -6.353,-0.763 -8.725,-0.683 -2.855,0.04 -3.659,0.884 -3.096,4.141 1.488,-0.603 13.268,-2.493 13.912,7.238"
         style="fill:#ffffff;fill-opacity:1;fill-rule:nonzero;stroke:none"
         id="path3241"
         inkscape:connector-curvature="0" /></g></g></svg>